<svg xmlns="http://www.w3.org/2000/svg" xmlns:xlink="http://www.w3.org/1999/xlink" width="500" zoomAndPan="magnify" viewBox="0 0 375 374.999991" height="500" preserveAspectRatio="xMidYMid meet" version="1.0"><defs><filter x="0%" y="0%" width="100%" height="100%" id="575732d53d"><feColorMatrix values="0 0 0 0 1 0 0 0 0 1 0 0 0 0 1 0 0 0 1 0" color-interpolation-filters="sRGB"/></filter><g/><clipPath id="f8aba071f9"><path d="M 64.761719 64.339844 L 305.546875 64.339844 L 305.546875 305 L 64.761719 305 Z M 64.761719 64.339844 " clip-rule="nonzero"/></clipPath><mask id="756a24fd53"><g filter="url(#575732d53d)"><rect x="-37.5" width="450" fill="#000000" y="-37.499999" height="449.999989" fill-opacity="0.2"/></g></mask><clipPath id="5863d38b38"><path d="M 0.246094 0.0664062 L 129.632812 0.0664062 L 129.632812 128.597656 L 0.246094 128.597656 Z M 0.246094 0.0664062 " clip-rule="nonzero"/></clipPath><clipPath id="f293ebf60b"><rect x="0" width="130" y="0" height="130"/></clipPath><clipPath id="94618f8920"><path d="M 147.164062 138.554688 L 235 138.554688 L 235 221.539062 L 147.164062 221.539062 Z M 147.164062 138.554688 " clip-rule="nonzero"/></clipPath><clipPath id="317e2fe4a1"><path d="M 134.746094 221 L 171.546875 221 L 171.546875 230.210938 L 134.746094 230.210938 Z M 134.746094 221 " clip-rule="nonzero"/></clipPath><clipPath id="c213527f64"><path d="M 255.578125 165.492188 L 260.828125 165.492188 L 260.828125 170.742188 L 255.578125 170.742188 Z M 255.578125 165.492188 " clip-rule="nonzero"/></clipPath><clipPath id="4a5d7c0f5b"><path d="M 255.578125 199.699219 L 260.828125 199.699219 L 260.828125 204.949219 L 255.578125 204.949219 Z M 255.578125 199.699219 " clip-rule="nonzero"/></clipPath><clipPath id="2deda0042d"><path d="M 108.894531 162.808594 L 114.144531 162.808594 L 114.144531 168.058594 L 108.894531 168.058594 Z M 108.894531 162.808594 " clip-rule="nonzero"/></clipPath><clipPath id="e6f733fb50"><path d="M 108.894531 199.699219 L 114.144531 199.699219 L 114.144531 204.949219 L 108.894531 204.949219 Z M 108.894531 199.699219 " clip-rule="nonzero"/></clipPath></defs><rect x="-37.5" width="450" fill="#ffffff" y="-37.499999" height="449.999989" fill-opacity="1"/><rect x="-37.5" width="450" fill="#1b314d" y="-37.499999" height="449.999989" fill-opacity="1"/><g clip-path="url(#f8aba071f9)"><path fill="#f5fbf9" d="M 184.949219 64.332031 C 251.277344 64.332031 305.125 118.183594 305.125 184.515625 C 305.125 250.847656 251.277344 304.699219 184.949219 304.699219 C 118.613281 304.699219 64.757812 250.847656 64.757812 184.515625 C 64.757812 118.183594 118.613281 64.332031 184.949219 64.332031 Z M 184.949219 66.9375 C 120.054688 66.9375 67.359375 119.621094 67.359375 184.515625 C 67.359375 249.410156 120.054688 302.097656 184.949219 302.097656 C 249.835938 302.097656 302.519531 249.410156 302.519531 184.515625 C 302.519531 119.621094 249.835938 66.9375 184.949219 66.9375 Z M 252.179688 214.828125 C 252.484375 214.171875 253.25 213.882812 253.910156 214.175781 C 254.558594 214.472656 254.855469 215.246094 254.558594 215.898438 C 242.578125 242.40625 215.898438 260.867188 184.949219 260.867188 C 153.992188 260.867188 127.316406 242.40625 115.332031 215.898438 C 115.035156 215.246094 115.332031 214.472656 115.980469 214.175781 C 116.640625 213.882812 117.40625 214.171875 117.703125 214.828125 C 129.277344 240.429688 155.042969 258.261719 184.949219 258.261719 C 214.847656 258.261719 240.613281 240.429688 252.179688 214.828125 Z M 117.703125 154.203125 C 117.40625 154.859375 116.640625 155.148438 115.980469 154.851562 C 115.332031 154.558594 115.035156 153.785156 115.332031 153.128906 C 127.316406 126.625 153.992188 108.164062 184.949219 108.164062 C 215.898438 108.164062 242.578125 126.625 254.558594 153.128906 C 254.855469 153.785156 254.558594 154.558594 253.910156 154.851562 C 253.25 155.148438 252.484375 154.859375 252.179688 154.203125 C 240.613281 128.601562 214.847656 110.769531 184.949219 110.769531 C 155.042969 110.769531 129.277344 128.601562 117.703125 154.203125 Z M 117.703125 154.203125 " fill-opacity="1" fill-rule="evenodd"/></g><g mask="url(#756a24fd53)"><g transform="matrix(1, 0, 0, 1, 120, 120)"><g clip-path="url(#f293ebf60b)"><g clip-path="url(#5863d38b38)"><path fill="#d34a24" d="M 129.648438 64.523438 C 129.648438 66.40625 129.566406 68.289062 129.402344 70.164062 L 64.949219 64.523438 L 129.402344 58.886719 C 129.566406 60.761719 129.648438 62.644531 129.648438 64.523438 Z M 0.246094 64.523438 C 0.246094 66.40625 0.328125 68.289062 0.492188 70.164062 L 64.945312 64.523438 L 0.492188 58.886719 C 0.328125 60.761719 0.246094 62.640625 0.246094 64.523438 Z M 127.445312 47.777344 C 126.957031 45.960938 126.390625 44.164062 125.746094 42.394531 C 125.101562 40.628906 124.382812 38.886719 123.585938 37.179688 L 64.949219 64.523438 Z M 2.449219 81.269531 C 2.9375 83.089844 3.503906 84.882812 4.148438 86.652344 C 4.792969 88.421875 5.511719 90.160156 6.308594 91.867188 L 64.945312 64.523438 Z M 117.949219 27.414062 C 116.867188 25.871094 115.722656 24.378906 114.511719 22.9375 C 113.300781 21.492188 112.027344 20.105469 110.699219 18.773438 L 64.949219 64.523438 Z M 11.945312 101.636719 C 13.027344 103.175781 14.171875 104.671875 15.382812 106.113281 C 16.59375 107.554688 17.863281 108.945312 19.195312 110.273438 L 64.945312 64.523438 Z M 102.058594 11.523438 C 100.515625 10.445312 98.929688 9.433594 97.296875 8.492188 C 95.667969 7.550781 93.996094 6.679688 92.292969 5.886719 L 64.949219 64.523438 Z M 27.835938 117.523438 C 29.378906 118.605469 30.964844 119.617188 32.597656 120.558594 C 34.226562 121.5 35.894531 122.367188 37.601562 123.164062 L 64.945312 64.523438 Z M 76.183594 0.804688 C 74.328125 0.480469 72.460938 0.234375 70.585938 0.0703125 L 64.949219 64.523438 L 81.691406 2.027344 C 79.875 1.542969 78.035156 1.132812 76.183594 0.804688 Z M 53.710938 128.242188 C 55.566406 128.570312 57.433594 128.816406 59.308594 128.980469 L 64.945312 64.523438 L 48.199219 127.019531 C 50.019531 127.507812 51.859375 127.914062 53.710938 128.242188 Z M 59.308594 0.0703125 C 57.433594 0.234375 55.566406 0.480469 53.710938 0.804688 C 51.859375 1.132812 50.019531 1.539062 48.203125 2.027344 L 64.949219 64.523438 Z M 70.585938 128.980469 C 72.460938 128.816406 74.328125 128.570312 76.183594 128.242188 C 78.035156 127.917969 79.875 127.507812 81.691406 127.019531 L 64.945312 64.523438 Z M 37.601562 5.886719 C 35.898438 6.679688 34.226562 7.550781 32.597656 8.492188 C 30.964844 9.433594 29.378906 10.445312 27.835938 11.523438 L 64.945312 64.523438 Z M 92.289062 123.164062 C 93.996094 122.367188 95.667969 121.5 97.296875 120.558594 C 98.925781 119.617188 100.515625 118.605469 102.058594 117.523438 L 64.945312 64.523438 Z M 19.195312 18.773438 C 17.867188 20.105469 16.59375 21.492188 15.382812 22.933594 C 14.171875 24.378906 13.027344 25.871094 11.945312 27.414062 L 64.945312 64.523438 Z M 110.699219 110.277344 C 112.027344 108.945312 113.300781 107.554688 114.511719 106.113281 C 115.71875 104.671875 116.867188 103.179688 117.945312 101.636719 L 64.945312 64.523438 Z M 6.308594 37.179688 C 5.511719 38.886719 4.792969 40.625 4.148438 42.394531 C 3.503906 44.164062 2.9375 45.960938 2.449219 47.777344 L 64.945312 64.523438 Z M 123.585938 91.867188 C 124.382812 90.164062 125.101562 88.421875 125.746094 86.652344 C 126.390625 84.886719 126.957031 83.089844 127.441406 81.269531 L 64.945312 64.523438 Z M 123.585938 91.867188 " fill-opacity="1" fill-rule="nonzero"/></g></g></g></g><g clip-path="url(#94618f8920)"><path fill="#f3cd74" d="M 215.273438 140.980469 C 215.273438 140.980469 210.542969 135.550781 207.878906 140.9375 C 207.464844 141.773438 207.589844 143.375 207.398438 144.304688 C 206.867188 146.886719 206.011719 149.421875 204.742188 151.738281 C 201.351562 157.949219 194.726562 161.132812 187.78125 161.113281 C 187.066406 161.113281 186.296875 161.054688 185.742188 160.601562 C 184.878906 159.898438 184.914062 158.609375 184.75 157.507812 C 184.222656 154.042969 176.910156 147.621094 173.75 151.773438 C 173.023438 152.730469 172.90625 155.304688 172.617188 156.464844 C 171.226562 162.046875 169.800781 167.621094 168.316406 173.179688 C 167.382812 176.664062 166.4375 180.148438 165.414062 183.609375 C 164.558594 186.496094 164.101562 189.515625 162.441406 192.085938 C 160.453125 195.160156 157.417969 197.320312 155.15625 200.164062 C 153.121094 202.722656 151.132812 205.441406 149.535156 208.296875 C 146.964844 212.894531 145.261719 219.285156 151.765625 221.25 C 154.476562 222.066406 157.730469 220.820312 160.234375 219.855469 C 164.660156 218.152344 168.847656 215.820312 172.925781 213.414062 C 183.550781 207.144531 193.625 199.917969 203.511719 192.554688 C 212.019531 186.222656 220.378906 179.695312 228.625 173.027344 C 230.359375 171.625 235.011719 168.910156 235.128906 166.570312 C 235.375 161.609375 232.355469 158.3125 227.71875 157.214844 C 227.550781 157.175781 227.375 157.136719 227.222656 157.050781 C 226.976562 156.914062 226.804688 156.679688 226.636719 156.453125 C 222.863281 151.285156 219.066406 146.132812 215.273438 140.980469 " fill-opacity="1" fill-rule="nonzero"/></g><path fill="#ffffff" d="M 230.921875 159.402344 C 230.921875 159.402344 230.597656 159.632812 229.988281 160.066406 C 229.382812 160.5 228.488281 161.132812 227.363281 161.953125 C 226.238281 162.769531 224.867188 163.757812 223.308594 164.914062 C 222.53125 165.492188 221.699219 166.105469 220.828125 166.75 C 219.953125 167.398438 219.039062 168.085938 218.082031 168.800781 C 216.175781 170.234375 214.117188 171.796875 211.945312 173.457031 C 209.777344 175.125 207.5 176.886719 205.148438 178.730469 C 204.566406 179.191406 203.96875 179.660156 203.378906 180.136719 C 202.789062 180.613281 202.195312 181.097656 201.601562 181.582031 C 200.410156 182.550781 199.210938 183.542969 198.007812 184.546875 C 196.808594 185.550781 195.597656 186.558594 194.382812 187.574219 C 193.773438 188.078125 193.167969 188.585938 192.558594 189.09375 C 191.941406 189.601562 191.335938 190.09375 190.71875 190.59375 C 188.261719 192.585938 185.746094 194.523438 183.273438 196.433594 C 182.03125 197.386719 180.804688 198.335938 179.589844 199.269531 C 178.371094 200.199219 177.171875 201.121094 175.988281 202.023438 C 173.621094 203.828125 171.316406 205.550781 169.121094 207.167969 C 166.921875 208.78125 164.832031 210.289062 162.886719 211.664062 C 162.402344 212.007812 161.925781 212.34375 161.457031 212.671875 C 160.992188 212.996094 160.535156 213.3125 160.089844 213.625 C 159.195312 214.25 158.355469 214.839844 157.554688 215.382812 C 155.953125 216.464844 154.542969 217.382812 153.339844 218.066406 C 152.738281 218.410156 152.191406 218.695312 151.707031 218.929688 C 151.21875 219.160156 150.796875 219.332031 150.445312 219.449219 C 150.09375 219.566406 149.816406 219.632812 149.628906 219.671875 C 149.535156 219.6875 149.460938 219.695312 149.414062 219.703125 C 149.363281 219.710938 149.339844 219.714844 149.339844 219.714844 C 149.339844 219.714844 149.363281 219.714844 149.414062 219.710938 C 149.460938 219.707031 149.535156 219.707031 149.632812 219.699219 C 149.824219 219.679688 150.109375 219.640625 150.476562 219.550781 C 151.203125 219.371094 152.246094 219 153.507812 218.390625 C 154.773438 217.789062 156.265625 216.976562 157.933594 215.976562 C 158.769531 215.476562 159.648438 214.9375 160.574219 214.367188 C 161.503906 213.800781 162.472656 213.1875 163.484375 212.550781 C 164.488281 211.90625 165.535156 211.230469 166.609375 210.519531 C 167.6875 209.8125 168.789062 209.066406 169.921875 208.296875 C 172.183594 206.75 174.546875 205.089844 176.960938 203.335938 C 178.171875 202.460938 179.394531 201.558594 180.628906 200.640625 C 181.242188 200.183594 181.863281 199.722656 182.484375 199.257812 C 183.105469 198.792969 183.726562 198.324219 184.355469 197.851562 C 186.859375 195.972656 189.386719 194.027344 191.875 192.023438 C 194.355469 190.007812 196.773438 187.9375 199.15625 185.910156 C 200.347656 184.898438 201.53125 183.894531 202.695312 182.902344 C 203.28125 182.410156 203.863281 181.921875 204.445312 181.433594 C 205.023438 180.953125 205.601562 180.472656 206.171875 180 C 208.472656 178.105469 210.695312 176.273438 212.804688 174.539062 C 214.910156 172.796875 216.902344 171.152344 218.742188 169.632812 C 219.65625 168.871094 220.535156 168.140625 221.375 167.445312 C 222.207031 166.75 223 166.085938 223.742188 165.464844 C 225.234375 164.226562 226.523438 163.132812 227.589844 162.238281 C 228.652344 161.34375 229.484375 160.628906 230.054688 160.148438 C 230.617188 159.660156 230.921875 159.402344 230.921875 159.402344 " fill-opacity="1" fill-rule="nonzero"/><path fill="#ffffff" d="M 176.835938 165.523438 C 176.875 165.496094 176.914062 165.457031 176.945312 165.410156 C 177.085938 165.199219 177.027344 164.914062 176.816406 164.773438 C 176.710938 164.703125 174.222656 163.066406 171.792969 163.703125 C 171.546875 163.769531 171.398438 164.019531 171.464844 164.265625 C 171.527344 164.511719 171.78125 164.660156 172.023438 164.59375 C 174.058594 164.0625 176.285156 165.523438 176.304688 165.539062 C 176.472656 165.648438 176.683594 165.636719 176.835938 165.523438 " fill-opacity="1" fill-rule="nonzero"/><path fill="#ffffff" d="M 176.0625 168.839844 C 176.105469 168.808594 176.144531 168.769531 176.175781 168.722656 C 176.316406 168.511719 176.257812 168.226562 176.046875 168.085938 C 175.941406 168.015625 173.449219 166.378906 171.023438 167.019531 C 170.777344 167.082031 170.628906 167.332031 170.691406 167.578125 C 170.757812 167.824219 171.007812 167.972656 171.253906 167.90625 C 173.289062 167.375 175.515625 168.835938 175.535156 168.851562 C 175.703125 168.960938 175.914062 168.949219 176.0625 168.839844 " fill-opacity="1" fill-rule="nonzero"/><path fill="#ffffff" d="M 174.96875 171.839844 C 175.011719 171.808594 175.046875 171.769531 175.078125 171.726562 C 175.21875 171.515625 175.160156 171.230469 174.949219 171.089844 C 174.847656 171.019531 172.355469 169.382812 169.925781 170.019531 C 169.679688 170.085938 169.535156 170.335938 169.597656 170.582031 C 169.660156 170.828125 169.914062 170.976562 170.160156 170.910156 C 172.183594 170.378906 174.417969 171.839844 174.441406 171.851562 C 174.605469 171.964844 174.816406 171.953125 174.96875 171.839844 " fill-opacity="1" fill-rule="nonzero"/><path fill="#ffffff" d="M 174.0625 174.703125 C 174.105469 174.675781 174.140625 174.636719 174.171875 174.589844 C 174.3125 174.378906 174.253906 174.09375 174.042969 173.953125 C 173.941406 173.882812 171.449219 172.246094 169.019531 172.882812 C 168.773438 172.949219 168.628906 173.199219 168.691406 173.445312 C 168.757812 173.691406 169.007812 173.839844 169.253906 173.773438 C 171.277344 173.242188 173.511719 174.703125 173.535156 174.71875 C 173.699219 174.828125 173.910156 174.816406 174.0625 174.703125 " fill-opacity="1" fill-rule="nonzero"/><path fill="#ffffff" d="M 173.15625 177.570312 C 173.199219 177.539062 173.234375 177.5 173.265625 177.453125 C 173.40625 177.242188 173.351562 176.957031 173.136719 176.816406 C 173.035156 176.746094 170.542969 175.109375 168.113281 175.75 C 167.867188 175.8125 167.71875 176.0625 167.785156 176.308594 C 167.847656 176.554688 168.101562 176.703125 168.347656 176.636719 C 170.378906 176.105469 172.605469 177.566406 172.628906 177.582031 C 172.792969 177.691406 173.003906 177.679688 173.15625 177.570312 " fill-opacity="1" fill-rule="nonzero"/><path fill="#ffffff" d="M 172.246094 180.109375 C 172.292969 180.078125 172.332031 180.035156 172.363281 179.984375 C 172.5 179.773438 172.4375 179.488281 172.222656 179.351562 C 172.121094 179.289062 169.753906 177.800781 167.386719 178.476562 C 167.140625 178.546875 167 178.800781 167.070312 179.042969 C 167.140625 179.289062 167.394531 179.429688 167.640625 179.359375 C 169.613281 178.796875 171.707031 180.113281 171.726562 180.125 C 171.890625 180.230469 172.097656 180.21875 172.246094 180.109375 " fill-opacity="1" fill-rule="nonzero"/><path fill="#ffffff" d="M 171.007812 182.925781 C 171.050781 182.894531 171.089844 182.851562 171.121094 182.804688 C 171.257812 182.589844 171.195312 182.304688 170.980469 182.167969 C 170.890625 182.109375 168.683594 180.71875 166.480469 181.339844 C 166.238281 181.410156 166.09375 181.664062 166.164062 181.90625 C 166.234375 182.152344 166.488281 182.292969 166.730469 182.222656 C 168.539062 181.714844 170.464844 182.929688 170.484375 182.941406 C 170.652344 183.046875 170.859375 183.035156 171.007812 182.925781 " fill-opacity="1" fill-rule="nonzero"/><path fill="#ffffff" d="M 170.21875 185.875 C 170.257812 185.84375 170.292969 185.808594 170.324219 185.765625 C 170.46875 185.554688 170.417969 185.269531 170.207031 185.125 C 170.113281 185.0625 167.898438 183.546875 165.78125 184.058594 C 165.535156 184.121094 165.382812 184.367188 165.441406 184.613281 C 165.5 184.863281 165.75 185.011719 165.996094 184.953125 C 167.710938 184.539062 169.664062 185.867188 169.683594 185.882812 C 169.851562 185.996094 170.066406 185.988281 170.21875 185.875 " fill-opacity="1" fill-rule="nonzero"/><path fill="#ffffff" d="M 169.242188 188.375 C 169.289062 188.339844 169.332031 188.296875 169.363281 188.242188 C 169.496094 188.027344 169.425781 187.742188 169.210938 187.609375 C 169.121094 187.554688 167.007812 186.277344 164.851562 186.929688 C 164.605469 187.003906 164.46875 187.261719 164.542969 187.503906 C 164.617188 187.746094 164.871094 187.882812 165.117188 187.8125 C 166.882812 187.277344 168.710938 188.382812 168.730469 188.394531 C 168.894531 188.496094 169.097656 188.480469 169.242188 188.375 " fill-opacity="1" fill-rule="nonzero"/><g clip-path="url(#317e2fe4a1)"><path fill="#f3cd74" d="M 171.46875 226.292969 C 171.46875 226.292969 171.4375 226.324219 171.371094 226.378906 C 171.308594 226.433594 171.214844 226.515625 171.078125 226.613281 C 170.816406 226.808594 170.414062 227.085938 169.867188 227.375 C 169.320312 227.667969 168.636719 227.980469 167.828125 228.28125 C 167.023438 228.582031 166.09375 228.875 165.070312 229.136719 C 164.042969 229.402344 162.917969 229.632812 161.726562 229.832031 C 160.527344 230.023438 159.261719 230.183594 157.945312 230.292969 C 157.617188 230.324219 157.285156 230.347656 156.949219 230.371094 C 156.613281 230.390625 156.277344 230.410156 155.9375 230.425781 C 155.257812 230.460938 154.574219 230.480469 153.878906 230.488281 C 152.496094 230.503906 151.082031 230.464844 149.675781 230.382812 C 148.269531 230.285156 146.863281 230.148438 145.484375 229.9375 C 145.140625 229.886719 144.796875 229.832031 144.457031 229.773438 C 144.117188 229.714844 143.777344 229.652344 143.441406 229.582031 C 142.773438 229.445312 142.109375 229.296875 141.464844 229.121094 C 140.171875 228.777344 138.9375 228.359375 137.804688 227.8125 C 137.238281 227.535156 136.695312 227.230469 136.203125 226.859375 C 135.957031 226.671875 135.722656 226.46875 135.507812 226.234375 C 135.296875 226.003906 135.097656 225.746094 134.957031 225.445312 C 134.886719 225.296875 134.832031 225.132812 134.792969 224.972656 C 134.757812 224.804688 134.742188 224.636719 134.746094 224.46875 L 134.746094 224.453125 C 134.746094 224.40625 134.746094 224.433594 134.746094 224.417969 L 134.75 224.394531 L 134.757812 224.300781 L 134.769531 224.234375 C 134.777344 224.1875 134.785156 224.140625 134.792969 224.101562 L 134.824219 223.984375 C 134.871094 223.832031 134.929688 223.691406 135.003906 223.5625 C 135.144531 223.304688 135.324219 223.101562 135.503906 222.921875 C 135.6875 222.746094 135.875 222.597656 136.0625 222.472656 C 136.4375 222.214844 136.808594 222.027344 137.152344 221.875 C 137.5 221.722656 137.820312 221.601562 138.117188 221.507812 C 138.703125 221.3125 139.175781 221.203125 139.492188 221.128906 C 139.652344 221.09375 139.777344 221.070312 139.859375 221.050781 C 139.941406 221.035156 139.984375 221.027344 139.984375 221.027344 C 139.984375 221.027344 139.824219 221.097656 139.527344 221.230469 C 139.226562 221.359375 138.792969 221.566406 138.261719 221.847656 C 137.996094 221.988281 137.707031 222.152344 137.40625 222.347656 C 137.109375 222.542969 136.792969 222.761719 136.5 223.03125 C 136.214844 223.296875 135.9375 223.609375 135.804688 223.953125 C 135.667969 224.300781 135.695312 224.625 135.902344 224.945312 C 136.105469 225.269531 136.472656 225.582031 136.902344 225.84375 C 137.335938 226.109375 137.832031 226.339844 138.359375 226.542969 C 139.417969 226.953125 140.605469 227.269531 141.84375 227.535156 C 142.46875 227.664062 143.105469 227.785156 143.753906 227.890625 C 144.078125 227.941406 144.402344 227.992188 144.734375 228.035156 C 145.0625 228.085938 145.394531 228.128906 145.726562 228.171875 C 147.0625 228.335938 148.425781 228.460938 149.792969 228.546875 C 151.160156 228.636719 152.527344 228.683594 153.882812 228.703125 C 154.222656 228.707031 154.558594 228.707031 154.890625 228.710938 C 155.226562 228.710938 155.558594 228.714844 155.890625 228.710938 C 156.550781 228.703125 157.207031 228.6875 157.851562 228.667969 C 159.136719 228.628906 160.378906 228.558594 161.554688 228.460938 C 162.730469 228.363281 163.84375 228.242188 164.859375 228.097656 C 165.882812 227.953125 166.808594 227.785156 167.628906 227.605469 C 168.445312 227.425781 169.148438 227.226562 169.722656 227.039062 C 170.292969 226.847656 170.734375 226.664062 171.023438 226.523438 C 171.171875 226.453125 171.28125 226.394531 171.355469 226.355469 C 171.429688 226.316406 171.46875 226.292969 171.46875 226.292969 " fill-opacity="1" fill-rule="nonzero"/></g><path fill="#f3cd74" d="M 167.25 224.695312 C 167.25 224.695312 167.222656 224.71875 167.171875 224.761719 C 167.125 224.800781 167.050781 224.867188 166.949219 224.941406 C 166.746094 225.089844 166.441406 225.300781 166.023438 225.523438 C 165.605469 225.746094 165.082031 225.988281 164.460938 226.21875 C 163.84375 226.445312 163.136719 226.671875 162.351562 226.871094 C 161.566406 227.074219 160.707031 227.25 159.792969 227.402344 C 158.878906 227.550781 157.90625 227.671875 156.898438 227.757812 C 156.648438 227.777344 156.394531 227.796875 156.140625 227.816406 C 155.882812 227.828125 155.625 227.847656 155.367188 227.855469 C 154.847656 227.882812 154.320312 227.898438 153.789062 227.902344 C 152.730469 227.917969 151.652344 227.886719 150.574219 227.824219 C 149.496094 227.75 148.421875 227.644531 147.367188 227.484375 C 147.105469 227.445312 146.839844 227.402344 146.582031 227.359375 C 146.320312 227.3125 146.0625 227.265625 145.804688 227.210938 C 145.292969 227.109375 144.785156 226.992188 144.292969 226.859375 C 143.304688 226.59375 142.359375 226.277344 141.492188 225.859375 C 141.058594 225.648438 140.644531 225.414062 140.265625 225.128906 C 140.078125 224.984375 139.898438 224.828125 139.734375 224.652344 C 139.574219 224.472656 139.421875 224.277344 139.3125 224.046875 C 139.257812 223.933594 139.253906 223.808594 139.222656 223.683594 C 139.195312 223.558594 139.21875 223.425781 139.21875 223.300781 L 139.21875 223.289062 C 139.21875 223.253906 139.1875 223.273438 139.1875 223.261719 L 139.171875 223.246094 L 139.167969 223.207031 L 139.167969 223.171875 L 139.171875 223.121094 C 139.175781 223.085938 139.179688 223.046875 139.1875 223.019531 L 139.210938 222.929688 C 139.246094 222.8125 139.292969 222.703125 139.347656 222.609375 C 139.457031 222.410156 139.59375 222.253906 139.730469 222.117188 C 139.871094 221.980469 140.015625 221.867188 140.160156 221.773438 C 140.449219 221.578125 140.730469 221.433594 140.992188 221.316406 C 141.257812 221.199219 141.503906 221.109375 141.730469 221.035156 C 142.179688 220.882812 142.539062 220.800781 142.785156 220.746094 C 142.90625 220.714844 143 220.699219 143.0625 220.6875 C 143.128906 220.671875 143.160156 220.667969 143.160156 220.667969 C 143.160156 220.667969 143.039062 220.722656 142.808594 220.820312 C 142.582031 220.921875 142.25 221.078125 141.839844 221.292969 C 141.640625 221.402344 141.417969 221.527344 141.1875 221.675781 C 140.957031 221.824219 140.71875 221.996094 140.496094 222.199219 C 140.273438 222.402344 140.0625 222.644531 139.960938 222.90625 C 139.855469 223.171875 139.878906 223.417969 140.035156 223.664062 C 140.191406 223.914062 140.472656 224.152344 140.804688 224.351562 C 141.132812 224.554688 141.511719 224.730469 141.917969 224.886719 C 142.726562 225.203125 143.632812 225.441406 144.582031 225.644531 C 145.058594 225.742188 145.546875 225.835938 146.042969 225.917969 C 146.289062 225.957031 146.539062 225.992188 146.792969 226.027344 C 147.042969 226.066406 147.296875 226.101562 147.554688 226.132812 C 148.574219 226.257812 149.617188 226.355469 150.664062 226.417969 C 151.710938 226.488281 152.757812 226.523438 153.792969 226.539062 C 154.050781 226.542969 154.308594 226.542969 154.5625 226.546875 C 154.820312 226.546875 155.074219 226.546875 155.328125 226.542969 C 155.835938 226.539062 156.335938 226.527344 156.828125 226.515625 C 157.8125 226.480469 158.761719 226.429688 159.664062 226.355469 C 160.5625 226.277344 161.410156 226.1875 162.191406 226.074219 C 162.972656 225.964844 163.683594 225.835938 164.308594 225.699219 C 164.933594 225.5625 165.472656 225.410156 165.910156 225.265625 C 166.347656 225.121094 166.683594 224.980469 166.90625 224.871094 C 167.019531 224.820312 167.105469 224.773438 167.160156 224.742188 C 167.21875 224.710938 167.25 224.695312 167.25 224.695312 " fill-opacity="1" fill-rule="nonzero"/><g fill="#f5fbf9" fill-opacity="1"><g transform="translate(151.740482, 109.351216)"><g><path d="M 0.152344 -28.707031 L -8.425781 -25.75 C -8.835938 -25.605469 -8.828125 -25.0625 -8.308594 -24.875 C -6.511719 -24.304688 -5.941406 -23.453125 -5.4375 -21.980469 L -1.238281 -9.8125 C -0.714844 -8.300781 -0.652344 -7.316406 -1.714844 -5.761719 C -2.007812 -5.292969 -1.664062 -4.820312 -1.253906 -4.960938 L 7.324219 -7.917969 C 13.613281 -10.089844 17.136719 -16.5625 15.164062 -22.277344 C 13.191406 -27.996094 6.441406 -30.878906 0.152344 -28.707031 Z M 6.097656 -8.820312 C 2.128906 -17.140625 0.289062 -24.460938 -0.3125 -27.269531 C 3.515625 -28.222656 7.117188 -25.078125 8.835938 -20.09375 C 10.554688 -15.113281 9.699219 -10.429688 6.097656 -8.820312 Z M 6.097656 -8.820312 "/></g></g></g><g fill="#f5fbf9" fill-opacity="1"><g transform="translate(176.433434, 101.563794)"><g><path d="M 16.753906 -20.945312 C 15.953125 -16.425781 10.746094 -17.375 9.292969 -12.699219 C 9.105469 -12.097656 9.089844 -11.449219 9.335938 -10.796875 C 9.9375 -8.964844 14.09375 -9.210938 13.167969 -12 C 12.84375 -12.957031 12.640625 -15.253906 14.515625 -14.214844 C 17.375 -12.589844 15.464844 -6.84375 10.839844 -6.957031 C 5.875 -7.074219 6.011719 -16.320312 9.300781 -16.5 C 9.949219 -16.527344 9.445312 -17.101562 9.0625 -17.371094 C 6.214844 -19.425781 7.707031 -25.699219 9.390625 -25.660156 C 10.039062 -25.644531 10.382812 -23.863281 9.878906 -22.667969 C 8.648438 -19.929688 14.597656 -19.355469 14.746094 -21.988281 C 14.941406 -24.75 12.527344 -26.792969 8.082031 -26.902344 C 0.304688 -27.089844 -1.015625 -18.78125 7.328125 -17.152344 C -2.375 -16.175781 -2.210938 -5.152344 8.675781 -4.890625 C 18.089844 -4.664062 19.726562 -15.210938 13.597656 -15.488281 C 16.296875 -16.375 19.875 -15.945312 21.285156 -18.847656 C 22.648438 -21.753906 17.40625 -24.777344 16.753906 -20.945312 Z M 16.753906 -20.945312 "/></g></g></g><g fill="#f5fbf9" fill-opacity="1"><g transform="translate(201.629346, 103.036628)"><g><path d="M 29.085938 -18.078125 L 11.433594 -24.648438 C 10.664062 -24.933594 10.300781 -24.703125 9.933594 -23.960938 C 9.402344 -22.914062 8.175781 -20.976562 8.070312 -20.691406 C 7.902344 -20.246094 8.519531 -19.925781 9.019531 -20.152344 C 10.839844 -20.949219 14.453125 -22.234375 16.070312 -21.632812 L 17.003906 -21.285156 L 13.597656 -12.132812 C 12.542969 -9.300781 10.230469 -4.074219 8.269531 -3.515625 C 7.742188 -3.339844 7.488281 -2.652344 8.335938 -2.335938 L 16.839844 0.828125 C 17.730469 1.160156 17.945312 0.457031 17.664062 -0.0195312 C 16.546875 -1.726562 18.210938 -7.191406 19.265625 -10.023438 L 22.671875 -19.175781 L 23.601562 -18.828125 C 25.222656 -18.226562 27.117188 -14.894531 27.96875 -13.101562 C 28.238281 -12.585938 28.878906 -12.441406 29.042969 -12.886719 C 29.148438 -13.167969 29.488281 -15.441406 29.773438 -16.578125 C 29.976562 -17.378906 29.855469 -17.792969 29.085938 -18.078125 Z M 29.085938 -18.078125 "/></g></g></g><g fill="#f5fbf9" fill-opacity="1"><g transform="translate(100.792612, 253.333045)"><g><path d="M 12.40625 5.859375 C 11.882812 6.367188 11.296875 6.734375 10.640625 6.953125 C 9.992188 7.179688 9.304688 7.253906 8.578125 7.171875 C 7.128906 7.035156 5.796875 6.335938 4.578125 5.078125 C 3.628906 4.097656 2.972656 3.015625 2.609375 1.828125 C 2.242188 0.648438 2.21875 -0.453125 2.53125 -1.484375 L 4.828125 -0.703125 C 4.628906 -0.0546875 4.664062 0.625 4.9375 1.34375 C 5.207031 2.070312 5.65625 2.765625 6.28125 3.421875 C 7.914062 5.097656 9.378906 5.3125 10.671875 4.0625 C 10.921875 3.820312 11.085938 3.570312 11.171875 3.3125 C 11.265625 3.0625 11.300781 2.773438 11.28125 2.453125 C 11.21875 1.703125 10.804688 0.648438 10.046875 -0.703125 C 9.566406 -1.503906 9.207031 -2.226562 8.96875 -2.875 C 8.726562 -3.519531 8.59375 -4.128906 8.5625 -4.703125 C 8.445312 -6.003906 8.878906 -7.128906 9.859375 -8.078125 C 10.347656 -8.546875 10.894531 -8.890625 11.5 -9.109375 C 12.113281 -9.328125 12.742188 -9.414062 13.390625 -9.375 C 14.054688 -9.3125 14.703125 -9.113281 15.328125 -8.78125 C 15.953125 -8.457031 16.546875 -8.003906 17.109375 -7.421875 C 17.929688 -6.566406 18.523438 -5.625 18.890625 -4.59375 C 19.265625 -3.570312 19.332031 -2.585938 19.09375 -1.640625 L 16.859375 -2.1875 C 16.953125 -2.925781 16.863281 -3.597656 16.59375 -4.203125 C 16.332031 -4.816406 15.96875 -5.367188 15.5 -5.859375 C 15.164062 -6.203125 14.800781 -6.460938 14.40625 -6.640625 C 14.007812 -6.816406 13.628906 -6.925781 13.265625 -6.96875 C 12.960938 -6.988281 12.671875 -6.9375 12.390625 -6.8125 C 12.117188 -6.695312 11.867188 -6.53125 11.640625 -6.3125 C 11.492188 -6.164062 11.363281 -5.992188 11.25 -5.796875 C 11.144531 -5.597656 11.085938 -5.328125 11.078125 -4.984375 C 11.078125 -4.648438 11.160156 -4.234375 11.328125 -3.734375 C 11.503906 -3.242188 11.796875 -2.632812 12.203125 -1.90625 C 12.703125 -1.039062 13.082031 -0.273438 13.34375 0.390625 C 13.601562 1.066406 13.75 1.707031 13.78125 2.3125 C 13.90625 3.664062 13.445312 4.847656 12.40625 5.859375 Z M 12.40625 5.859375 "/></g></g></g><g fill="#f5fbf9" fill-opacity="1"><g transform="translate(114.477318, 266.968467)"><g><path d="M 20.953125 -6.40625 L 23.03125 -4.96875 L 13.203125 9.171875 L 11.125 7.734375 L 15.625 1.25 L 7.703125 -4.25 L 3.203125 2.234375 L 1.109375 0.78125 L 10.9375 -13.359375 L 13.03125 -11.90625 L 9.046875 -6.1875 L 16.96875 -0.6875 Z M 20.953125 -6.40625 "/></g></g></g><g fill="#f5fbf9" fill-opacity="1"><g transform="translate(133.623465, 279.629664)"><g><path d="M 15.28125 -12.578125 C 16.363281 -12.140625 17.296875 -11.503906 18.078125 -10.671875 C 18.859375 -9.847656 19.445312 -8.914062 19.84375 -7.875 C 20.25 -6.84375 20.457031 -5.742188 20.46875 -4.578125 C 20.488281 -3.421875 20.269531 -2.285156 19.8125 -1.171875 C 19.351562 -0.046875 18.707031 0.921875 17.875 1.734375 C 17.050781 2.546875 16.128906 3.175781 15.109375 3.625 C 14.085938 4.082031 13.007812 4.328125 11.875 4.359375 C 10.738281 4.398438 9.628906 4.195312 8.546875 3.75 C 7.460938 3.3125 6.53125 2.675781 5.75 1.84375 C 4.96875 1.019531 4.375 0.09375 3.96875 -0.9375 C 3.570312 -1.976562 3.367188 -3.078125 3.359375 -4.234375 C 3.359375 -5.390625 3.585938 -6.53125 4.046875 -7.65625 C 4.503906 -8.769531 5.140625 -9.734375 5.953125 -10.546875 C 6.773438 -11.367188 7.695312 -12.003906 8.71875 -12.453125 C 9.738281 -12.910156 10.816406 -13.15625 11.953125 -13.1875 C 13.085938 -13.226562 14.195312 -13.023438 15.28125 -12.578125 Z M 9.46875 1.546875 C 10.238281 1.859375 11.019531 1.992188 11.8125 1.953125 C 12.613281 1.921875 13.367188 1.738281 14.078125 1.40625 C 14.785156 1.070312 15.425781 0.601562 16 0 C 16.582031 -0.613281 17.046875 -1.332031 17.390625 -2.15625 C 17.722656 -2.976562 17.894531 -3.804688 17.90625 -4.640625 C 17.925781 -5.484375 17.800781 -6.269531 17.53125 -7 C 17.269531 -7.738281 16.867188 -8.398438 16.328125 -8.984375 C 15.785156 -9.578125 15.128906 -10.03125 14.359375 -10.34375 C 13.597656 -10.65625 12.820312 -10.789062 12.03125 -10.75 C 11.238281 -10.71875 10.484375 -10.535156 9.765625 -10.203125 C 9.046875 -9.867188 8.394531 -9.398438 7.8125 -8.796875 C 7.226562 -8.203125 6.769531 -7.492188 6.4375 -6.671875 C 6.09375 -5.847656 5.914062 -5.007812 5.90625 -4.15625 C 5.894531 -3.3125 6.023438 -2.519531 6.296875 -1.78125 C 6.578125 -1.050781 6.984375 -0.394531 7.515625 0.1875 C 8.054688 0.78125 8.707031 1.234375 9.46875 1.546875 Z M 9.46875 1.546875 "/></g></g></g><g fill="#f5fbf9" fill-opacity="1"><g transform="translate(155.947302, 287.98198)"><g><path d="M 14.984375 -14.59375 L 14.546875 -12.359375 L 6.703125 -13.90625 L 5.796875 -9.3125 L 12.78125 -7.9375 L 12.328125 -5.609375 L 5.34375 -6.984375 L 4.265625 -1.5625 L 12.109375 -0.015625 L 11.65625 2.296875 L 3.8125 0.75 L 2.578125 0.515625 L 1.328125 0.265625 L 4.65625 -16.625 Z M 14.984375 -14.59375 "/></g></g></g><g fill="#f5fbf9" fill-opacity="1"><g transform="translate(174.073581, 291.141941)"><g><path d="M 12.953125 -4.546875 C 12.929688 -3.816406 12.769531 -3.144531 12.46875 -2.53125 C 12.164062 -1.925781 11.726562 -1.394531 11.15625 -0.9375 C 10.019531 -0.0078125 8.578125 0.429688 6.828125 0.390625 C 5.460938 0.367188 4.234375 0.0664062 3.140625 -0.515625 C 2.054688 -1.109375 1.265625 -1.878906 0.765625 -2.828125 L 2.9375 -3.890625 C 3.25 -3.296875 3.753906 -2.835938 4.453125 -2.515625 C 5.160156 -2.191406 5.96875 -2.019531 6.875 -2 C 9.21875 -1.945312 10.410156 -2.816406 10.453125 -4.609375 C 10.453125 -4.953125 10.394531 -5.242188 10.28125 -5.484375 C 10.164062 -5.734375 9.988281 -5.96875 9.75 -6.1875 C 9.175781 -6.675781 8.144531 -7.132812 6.65625 -7.5625 C 5.75 -7.800781 4.984375 -8.066406 4.359375 -8.359375 C 3.734375 -8.648438 3.210938 -8.984375 2.796875 -9.359375 C 1.796875 -10.210938 1.304688 -11.320312 1.328125 -12.6875 C 1.347656 -13.363281 1.5 -13.988281 1.78125 -14.5625 C 2.0625 -15.144531 2.445312 -15.648438 2.9375 -16.078125 C 3.445312 -16.503906 4.039062 -16.820312 4.71875 -17.03125 C 5.394531 -17.238281 6.140625 -17.332031 6.953125 -17.3125 C 8.140625 -17.289062 9.222656 -17.039062 10.203125 -16.5625 C 11.191406 -16.082031 11.929688 -15.425781 12.421875 -14.59375 L 10.453125 -13.421875 C 9.992188 -14.003906 9.457031 -14.421875 8.84375 -14.671875 C 8.226562 -14.921875 7.582031 -15.050781 6.90625 -15.0625 C 6.425781 -15.070312 5.976562 -15 5.5625 -14.84375 C 5.15625 -14.695312 4.8125 -14.507812 4.53125 -14.28125 C 4.300781 -14.09375 4.128906 -13.859375 4.015625 -13.578125 C 3.898438 -13.296875 3.835938 -12.992188 3.828125 -12.671875 C 3.828125 -12.460938 3.859375 -12.25 3.921875 -12.03125 C 3.984375 -11.8125 4.128906 -11.582031 4.359375 -11.34375 C 4.597656 -11.101562 4.953125 -10.867188 5.421875 -10.640625 C 5.890625 -10.410156 6.523438 -10.175781 7.328125 -9.9375 C 8.296875 -9.675781 9.109375 -9.398438 9.765625 -9.109375 C 10.421875 -8.816406 10.972656 -8.46875 11.421875 -8.0625 C 12.472656 -7.164062 12.984375 -5.992188 12.953125 -4.546875 Z M 12.953125 -4.546875 "/></g></g></g><g fill="#f5fbf9" fill-opacity="1"><g transform="translate(192.955797, 290.943824)"><g/></g></g><g fill="#f5fbf9" fill-opacity="1"><g transform="translate(204.042219, 289.569287)"><g><path d="M 11.203125 -7.921875 C 11.378906 -7.210938 11.40625 -6.519531 11.28125 -5.84375 C 11.164062 -5.175781 10.894531 -4.546875 10.46875 -3.953125 C 9.625 -2.753906 8.359375 -1.9375 6.671875 -1.5 C 5.347656 -1.15625 4.082031 -1.113281 2.875 -1.375 C 1.675781 -1.632812 0.707031 -2.148438 -0.03125 -2.921875 L 1.765625 -4.546875 C 2.222656 -4.066406 2.832031 -3.765625 3.59375 -3.640625 C 4.363281 -3.523438 5.1875 -3.582031 6.0625 -3.8125 C 8.320312 -4.40625 9.226562 -5.566406 8.78125 -7.296875 C 8.6875 -7.628906 8.550781 -7.894531 8.375 -8.09375 C 8.195312 -8.300781 7.960938 -8.476562 7.671875 -8.625 C 6.992188 -8.9375 5.875 -9.09375 4.3125 -9.09375 C 3.382812 -9.070312 2.578125 -9.113281 1.890625 -9.21875 C 1.210938 -9.320312 0.625 -9.503906 0.125 -9.765625 C -1.070312 -10.304688 -1.84375 -11.234375 -2.1875 -12.546875 C -2.351562 -13.203125 -2.378906 -13.847656 -2.265625 -14.484375 C -2.160156 -15.128906 -1.929688 -15.722656 -1.578125 -16.265625 C -1.203125 -16.816406 -0.71875 -17.285156 -0.125 -17.671875 C 0.46875 -18.054688 1.15625 -18.351562 1.9375 -18.5625 C 3.09375 -18.863281 4.207031 -18.914062 5.28125 -18.71875 C 6.351562 -18.53125 7.242188 -18.101562 7.953125 -17.4375 L 6.375 -15.765625 C 5.769531 -16.203125 5.132812 -16.453125 4.46875 -16.515625 C 3.8125 -16.585938 3.15625 -16.539062 2.5 -16.375 C 2.039062 -16.25 1.632812 -16.054688 1.28125 -15.796875 C 0.925781 -15.535156 0.644531 -15.257812 0.4375 -14.96875 C 0.28125 -14.726562 0.179688 -14.457031 0.140625 -14.15625 C 0.109375 -13.851562 0.132812 -13.546875 0.21875 -13.234375 C 0.269531 -13.035156 0.351562 -12.835938 0.46875 -12.640625 C 0.59375 -12.441406 0.800781 -12.257812 1.09375 -12.09375 C 1.382812 -11.9375 1.785156 -11.8125 2.296875 -11.71875 C 2.816406 -11.625 3.488281 -11.570312 4.3125 -11.5625 C 5.320312 -11.582031 6.179688 -11.535156 6.890625 -11.421875 C 7.609375 -11.316406 8.234375 -11.132812 8.765625 -10.875 C 10.015625 -10.300781 10.828125 -9.316406 11.203125 -7.921875 Z M 11.203125 -7.921875 "/></g></g></g><g fill="#f5fbf9" fill-opacity="1"><g transform="translate(222.409808, 284.252255)"><g><path d="M -1.8125 -15.578125 L -6.0625 -13.640625 L -7.015625 -15.71875 L 3.796875 -20.640625 L 4.75 -18.5625 L 0.484375 -16.625 L 6.65625 -3.03125 L 4.359375 -1.984375 Z M -1.8125 -15.578125 "/></g></g></g><g fill="#f5fbf9" fill-opacity="1"><g transform="translate(238.623593, 276.646701)"><g><path d="M -2.515625 -19.640625 C -1.566406 -20.316406 -0.535156 -20.765625 0.578125 -20.984375 C 1.691406 -21.203125 2.796875 -21.207031 3.890625 -21 C 4.992188 -20.789062 6.039062 -20.378906 7.03125 -19.765625 C 8.019531 -19.160156 8.863281 -18.375 9.5625 -17.40625 C 10.269531 -16.40625 10.75 -15.335938 11 -14.203125 C 11.25 -13.066406 11.289062 -11.945312 11.125 -10.84375 C 10.957031 -9.75 10.585938 -8.707031 10.015625 -7.71875 C 9.441406 -6.738281 8.675781 -5.910156 7.71875 -5.234375 C 6.769531 -4.554688 5.738281 -4.109375 4.625 -3.890625 C 3.507812 -3.671875 2.40625 -3.660156 1.3125 -3.859375 C 0.21875 -4.066406 -0.816406 -4.476562 -1.796875 -5.09375 C -2.773438 -5.707031 -3.617188 -6.515625 -4.328125 -7.515625 C -5.023438 -8.484375 -5.503906 -9.53125 -5.765625 -10.65625 C -6.023438 -11.789062 -6.070312 -12.910156 -5.90625 -14.015625 C -5.738281 -15.117188 -5.367188 -16.160156 -4.796875 -17.140625 C -4.222656 -18.128906 -3.460938 -18.960938 -2.515625 -19.640625 Z M 6.34375 -7.203125 C 7.019531 -7.679688 7.554688 -8.265625 7.953125 -8.953125 C 8.347656 -9.640625 8.59375 -10.375 8.6875 -11.15625 C 8.78125 -11.9375 8.722656 -12.738281 8.515625 -13.5625 C 8.316406 -14.382812 7.957031 -15.160156 7.4375 -15.890625 C 6.914062 -16.609375 6.304688 -17.191406 5.609375 -17.640625 C 4.910156 -18.085938 4.175781 -18.394531 3.40625 -18.5625 C 2.632812 -18.726562 1.859375 -18.738281 1.078125 -18.59375 C 0.296875 -18.457031 -0.429688 -18.148438 -1.109375 -17.671875 C -1.773438 -17.191406 -2.304688 -16.601562 -2.703125 -15.90625 C -3.097656 -15.21875 -3.34375 -14.476562 -3.4375 -13.6875 C -3.539062 -12.90625 -3.492188 -12.109375 -3.296875 -11.296875 C -3.097656 -10.484375 -2.738281 -9.71875 -2.21875 -9 C -1.695312 -8.269531 -1.082031 -7.675781 -0.375 -7.21875 C 0.320312 -6.757812 1.054688 -6.445312 1.828125 -6.28125 C 2.609375 -6.125 3.390625 -6.117188 4.171875 -6.265625 C 4.953125 -6.410156 5.675781 -6.722656 6.34375 -7.203125 Z M 6.34375 -7.203125 "/></g></g></g><g fill="#f5fbf9" fill-opacity="1"><g transform="translate(257.713437, 262.198782)"><g><path d="M 10.53125 -11.453125 L 8.390625 -9.125 L -0.75 -10.15625 L -2.796875 -7.9375 L 2.671875 -2.90625 L 0.953125 -1.03125 L -11.71875 -12.6875 L -6.984375 -17.84375 C -6.523438 -18.34375 -5.992188 -18.726562 -5.390625 -19 C -4.785156 -19.269531 -4.171875 -19.421875 -3.546875 -19.453125 C -2.929688 -19.484375 -2.316406 -19.394531 -1.703125 -19.1875 C -1.085938 -18.976562 -0.53125 -18.640625 -0.03125 -18.171875 C 0.382812 -17.785156 0.71875 -17.359375 0.96875 -16.890625 C 1.21875 -16.421875 1.378906 -15.929688 1.453125 -15.421875 C 1.535156 -14.921875 1.539062 -14.40625 1.46875 -13.875 C 1.40625 -13.351562 1.242188 -12.859375 0.984375 -12.390625 Z M -1.53125 -12.828125 C -1.300781 -13.078125 -1.128906 -13.359375 -1.015625 -13.671875 C -0.910156 -13.992188 -0.867188 -14.3125 -0.890625 -14.625 C -0.921875 -14.9375 -1.003906 -15.242188 -1.140625 -15.546875 C -1.285156 -15.859375 -1.492188 -16.140625 -1.765625 -16.390625 C -2.023438 -16.628906 -2.3125 -16.804688 -2.625 -16.921875 C -2.9375 -17.035156 -3.25 -17.085938 -3.5625 -17.078125 C -3.882812 -17.078125 -4.203125 -17.007812 -4.515625 -16.875 C -4.828125 -16.75 -5.097656 -16.5625 -5.328125 -16.3125 L -8.34375 -13.03125 L -4.53125 -9.53125 Z M -1.53125 -12.828125 "/></g></g></g><g fill="#f5fbf9" fill-opacity="1"><g transform="translate(271.525418, 246.310066)"><g><path d="M -8.265625 -19.21875 L -6.328125 -18.015625 L -10.578125 -11.25 L -6.609375 -8.75 L -2.8125 -14.765625 L -0.828125 -13.515625 L -4.625 -7.5 L 0.0625 -4.546875 L 4.3125 -11.3125 L 6.3125 -10.0625 L 2.0625 -3.296875 L 1.390625 -2.21875 L 0.71875 -1.15625 L -13.859375 -10.3125 Z M -8.265625 -19.21875 "/></g></g></g><g fill="#f5fbf9" fill-opacity="1"><g transform="translate(280.68062, 230.689623)"><g/></g></g><g fill="#f5fbf9" fill-opacity="1"><g transform="translate(78.840655, 188.684049)"><g><path d="M 8.046875 -11.671875 L 8.046875 -10.125 L 2.625 -10.125 L 2.625 -6.9375 L 7.453125 -6.9375 L 7.453125 -5.34375 L 2.625 -5.34375 L 2.625 -1.59375 L 8.046875 -1.59375 L 8.046875 0 L 0.921875 0 L 0.921875 -11.671875 Z M 8.046875 -11.671875 "/></g></g></g><g fill="#f5fbf9" fill-opacity="1"><g transform="translate(88.036599, 188.684049)"><g><path d="M 8.703125 -3.28125 C 8.703125 -2.78125 8.601562 -2.316406 8.40625 -1.890625 C 8.207031 -1.472656 7.914062 -1.109375 7.53125 -0.796875 C 6.78125 -0.148438 5.8125 0.171875 4.625 0.171875 C 3.695312 0.171875 2.859375 -0.015625 2.109375 -0.390625 C 1.367188 -0.773438 0.828125 -1.285156 0.484375 -1.921875 L 1.9375 -2.6875 C 2.15625 -2.289062 2.503906 -1.984375 2.984375 -1.765625 C 3.460938 -1.554688 4.007812 -1.453125 4.625 -1.453125 C 6.21875 -1.453125 7.015625 -2.0625 7.015625 -3.28125 C 7.015625 -3.507812 6.972656 -3.703125 6.890625 -3.859375 C 6.804688 -4.023438 6.679688 -4.179688 6.515625 -4.328125 C 6.117188 -4.660156 5.410156 -4.957031 4.390625 -5.21875 C 3.773438 -5.375 3.253906 -5.539062 2.828125 -5.71875 C 2.398438 -5.90625 2.046875 -6.128906 1.765625 -6.390625 C 1.066406 -6.941406 0.71875 -7.679688 0.71875 -8.609375 C 0.71875 -9.066406 0.804688 -9.492188 0.984375 -9.890625 C 1.171875 -10.296875 1.429688 -10.644531 1.765625 -10.9375 C 2.097656 -11.238281 2.492188 -11.460938 2.953125 -11.609375 C 3.410156 -11.753906 3.910156 -11.828125 4.453125 -11.828125 C 5.253906 -11.828125 5.992188 -11.671875 6.671875 -11.359375 C 7.347656 -11.054688 7.859375 -10.625 8.203125 -10.0625 L 6.875 -9.25 C 6.5625 -9.632812 6.195312 -9.90625 5.78125 -10.0625 C 5.363281 -10.21875 4.921875 -10.296875 4.453125 -10.296875 C 4.128906 -10.296875 3.828125 -10.238281 3.546875 -10.125 C 3.273438 -10.019531 3.046875 -9.890625 2.859375 -9.734375 C 2.703125 -9.609375 2.585938 -9.445312 2.515625 -9.25 C 2.453125 -9.0625 2.421875 -8.859375 2.421875 -8.640625 C 2.421875 -8.492188 2.441406 -8.347656 2.484375 -8.203125 C 2.523438 -8.054688 2.628906 -7.898438 2.796875 -7.734375 C 2.960938 -7.578125 3.203125 -7.425781 3.515625 -7.28125 C 3.835938 -7.132812 4.273438 -6.988281 4.828125 -6.84375 C 5.484375 -6.675781 6.035156 -6.492188 6.484375 -6.296875 C 6.929688 -6.109375 7.3125 -5.882812 7.625 -5.625 C 8.34375 -5.03125 8.703125 -4.25 8.703125 -3.28125 Z M 8.703125 -3.28125 "/></g></g></g><g fill="#f5fbf9" fill-opacity="1"><g transform="translate(97.742511, 188.684049)"><g><path d="M 3.234375 -10.125 L 0.078125 -10.125 L 0.078125 -11.671875 L 8.125 -11.671875 L 8.125 -10.125 L 4.953125 -10.125 L 4.953125 0 L 3.234375 0 Z M 3.234375 -10.125 "/></g></g></g><g fill="#f5fbf9" fill-opacity="1"><g transform="translate(261.366696, 188.731977)"><g><path d="M 2.046875 -10.125 L 0.484375 -10.125 L 0.484375 -11.671875 L 3.765625 -11.671875 L 3.765625 0 L 2.046875 0 Z M 2.046875 -10.125 "/></g></g></g><g fill="#f5fbf9" fill-opacity="1"><g transform="translate(266.449996, 188.731977)"><g><path d="M 2.21875 -4.484375 C 1.695312 -4.867188 1.285156 -5.351562 0.984375 -5.9375 C 0.679688 -6.53125 0.53125 -7.160156 0.53125 -7.828125 C 0.53125 -8.390625 0.632812 -8.910156 0.84375 -9.390625 C 1.0625 -9.878906 1.347656 -10.300781 1.703125 -10.65625 C 2.066406 -11.007812 2.492188 -11.289062 2.984375 -11.5 C 3.472656 -11.707031 4 -11.8125 4.5625 -11.8125 C 5.101562 -11.8125 5.617188 -11.707031 6.109375 -11.5 C 6.597656 -11.289062 7.023438 -11.007812 7.390625 -10.65625 C 7.753906 -10.300781 8.039062 -9.878906 8.25 -9.390625 C 8.46875 -8.910156 8.578125 -8.390625 8.578125 -7.828125 C 8.578125 -7.441406 8.515625 -7.070312 8.390625 -6.71875 C 8.265625 -6.375 8.117188 -6.023438 7.953125 -5.671875 C 7.898438 -5.585938 7.816406 -5.441406 7.703125 -5.234375 C 7.597656 -5.023438 7.46875 -4.78125 7.3125 -4.5 C 7.164062 -4.21875 7 -3.910156 6.8125 -3.578125 C 6.632812 -3.242188 6.453125 -2.910156 6.265625 -2.578125 C 5.828125 -1.804688 5.351562 -0.945312 4.84375 0 L 3.046875 0 L 5.265625 -4 C 4.691406 -3.851562 4.140625 -3.828125 3.609375 -3.921875 C 3.078125 -4.015625 2.613281 -4.203125 2.21875 -4.484375 Z M 4.5625 -10.234375 C 4.226562 -10.234375 3.910156 -10.171875 3.609375 -10.046875 C 3.316406 -9.921875 3.0625 -9.75 2.84375 -9.53125 C 2.625 -9.320312 2.453125 -9.066406 2.328125 -8.765625 C 2.203125 -8.472656 2.140625 -8.160156 2.140625 -7.828125 C 2.140625 -7.410156 2.226562 -7.023438 2.40625 -6.671875 C 2.59375 -6.316406 2.84375 -6.03125 3.15625 -5.8125 C 3.351562 -5.664062 3.585938 -5.550781 3.859375 -5.46875 C 4.128906 -5.382812 4.40625 -5.347656 4.6875 -5.359375 C 4.96875 -5.367188 5.25 -5.425781 5.53125 -5.53125 C 5.820312 -5.644531 6.082031 -5.832031 6.3125 -6.09375 L 6.390625 -6.1875 C 6.523438 -6.46875 6.648438 -6.757812 6.765625 -7.0625 C 6.890625 -7.375 6.953125 -7.628906 6.953125 -7.828125 C 6.953125 -8.160156 6.890625 -8.472656 6.765625 -8.765625 C 6.640625 -9.066406 6.46875 -9.320312 6.25 -9.53125 C 6.03125 -9.75 5.773438 -9.921875 5.484375 -10.046875 C 5.191406 -10.171875 4.882812 -10.234375 4.5625 -10.234375 Z M 4.5625 -10.234375 "/></g></g></g><g fill="#f5fbf9" fill-opacity="1"><g transform="translate(275.761091, 188.731977)"><g><path d="M 2.21875 -4.484375 C 1.695312 -4.867188 1.285156 -5.351562 0.984375 -5.9375 C 0.679688 -6.53125 0.53125 -7.160156 0.53125 -7.828125 C 0.53125 -8.390625 0.632812 -8.910156 0.84375 -9.390625 C 1.0625 -9.878906 1.347656 -10.300781 1.703125 -10.65625 C 2.066406 -11.007812 2.492188 -11.289062 2.984375 -11.5 C 3.472656 -11.707031 4 -11.8125 4.5625 -11.8125 C 5.101562 -11.8125 5.617188 -11.707031 6.109375 -11.5 C 6.597656 -11.289062 7.023438 -11.007812 7.390625 -10.65625 C 7.753906 -10.300781 8.039062 -9.878906 8.25 -9.390625 C 8.46875 -8.910156 8.578125 -8.390625 8.578125 -7.828125 C 8.578125 -7.441406 8.515625 -7.070312 8.390625 -6.71875 C 8.265625 -6.375 8.117188 -6.023438 7.953125 -5.671875 C 7.898438 -5.585938 7.816406 -5.441406 7.703125 -5.234375 C 7.597656 -5.023438 7.46875 -4.78125 7.3125 -4.5 C 7.164062 -4.21875 7 -3.910156 6.8125 -3.578125 C 6.632812 -3.242188 6.453125 -2.910156 6.265625 -2.578125 C 5.828125 -1.804688 5.351562 -0.945312 4.84375 0 L 3.046875 0 L 5.265625 -4 C 4.691406 -3.851562 4.140625 -3.828125 3.609375 -3.921875 C 3.078125 -4.015625 2.613281 -4.203125 2.21875 -4.484375 Z M 4.5625 -10.234375 C 4.226562 -10.234375 3.910156 -10.171875 3.609375 -10.046875 C 3.316406 -9.921875 3.0625 -9.75 2.84375 -9.53125 C 2.625 -9.320312 2.453125 -9.066406 2.328125 -8.765625 C 2.203125 -8.472656 2.140625 -8.160156 2.140625 -7.828125 C 2.140625 -7.410156 2.226562 -7.023438 2.40625 -6.671875 C 2.59375 -6.316406 2.84375 -6.03125 3.15625 -5.8125 C 3.351562 -5.664062 3.585938 -5.550781 3.859375 -5.46875 C 4.128906 -5.382812 4.40625 -5.347656 4.6875 -5.359375 C 4.96875 -5.367188 5.25 -5.425781 5.53125 -5.53125 C 5.820312 -5.644531 6.082031 -5.832031 6.3125 -6.09375 L 6.390625 -6.1875 C 6.523438 -6.46875 6.648438 -6.757812 6.765625 -7.0625 C 6.890625 -7.375 6.953125 -7.628906 6.953125 -7.828125 C 6.953125 -8.160156 6.890625 -8.472656 6.765625 -8.765625 C 6.640625 -9.066406 6.46875 -9.320312 6.25 -9.53125 C 6.03125 -9.75 5.773438 -9.921875 5.484375 -10.046875 C 5.191406 -10.171875 4.882812 -10.234375 4.5625 -10.234375 Z M 4.5625 -10.234375 "/></g></g></g><g fill="#f5fbf9" fill-opacity="1"><g transform="translate(285.072186, 188.731977)"><g><path d="M 2.21875 -4.484375 C 1.695312 -4.867188 1.285156 -5.351562 0.984375 -5.9375 C 0.679688 -6.53125 0.53125 -7.160156 0.53125 -7.828125 C 0.53125 -8.390625 0.632812 -8.910156 0.84375 -9.390625 C 1.0625 -9.878906 1.347656 -10.300781 1.703125 -10.65625 C 2.066406 -11.007812 2.492188 -11.289062 2.984375 -11.5 C 3.472656 -11.707031 4 -11.8125 4.5625 -11.8125 C 5.101562 -11.8125 5.617188 -11.707031 6.109375 -11.5 C 6.597656 -11.289062 7.023438 -11.007812 7.390625 -10.65625 C 7.753906 -10.300781 8.039062 -9.878906 8.25 -9.390625 C 8.46875 -8.910156 8.578125 -8.390625 8.578125 -7.828125 C 8.578125 -7.441406 8.515625 -7.070312 8.390625 -6.71875 C 8.265625 -6.375 8.117188 -6.023438 7.953125 -5.671875 C 7.898438 -5.585938 7.816406 -5.441406 7.703125 -5.234375 C 7.597656 -5.023438 7.46875 -4.78125 7.3125 -4.5 C 7.164062 -4.21875 7 -3.910156 6.8125 -3.578125 C 6.632812 -3.242188 6.453125 -2.910156 6.265625 -2.578125 C 5.828125 -1.804688 5.351562 -0.945312 4.84375 0 L 3.046875 0 L 5.265625 -4 C 4.691406 -3.851562 4.140625 -3.828125 3.609375 -3.921875 C 3.078125 -4.015625 2.613281 -4.203125 2.21875 -4.484375 Z M 4.5625 -10.234375 C 4.226562 -10.234375 3.910156 -10.171875 3.609375 -10.046875 C 3.316406 -9.921875 3.0625 -9.75 2.84375 -9.53125 C 2.625 -9.320312 2.453125 -9.066406 2.328125 -8.765625 C 2.203125 -8.472656 2.140625 -8.160156 2.140625 -7.828125 C 2.140625 -7.410156 2.226562 -7.023438 2.40625 -6.671875 C 2.59375 -6.316406 2.84375 -6.03125 3.15625 -5.8125 C 3.351562 -5.664062 3.585938 -5.550781 3.859375 -5.46875 C 4.128906 -5.382812 4.40625 -5.347656 4.6875 -5.359375 C 4.96875 -5.367188 5.25 -5.425781 5.53125 -5.53125 C 5.820312 -5.644531 6.082031 -5.832031 6.3125 -6.09375 L 6.390625 -6.1875 C 6.523438 -6.46875 6.648438 -6.757812 6.765625 -7.0625 C 6.890625 -7.375 6.953125 -7.628906 6.953125 -7.828125 C 6.953125 -8.160156 6.890625 -8.472656 6.765625 -8.765625 C 6.640625 -9.066406 6.46875 -9.320312 6.25 -9.53125 C 6.03125 -9.75 5.773438 -9.921875 5.484375 -10.046875 C 5.191406 -10.171875 4.882812 -10.234375 4.5625 -10.234375 Z M 4.5625 -10.234375 "/></g></g></g><g clip-path="url(#c213527f64)"><path fill="#3c7f72" d="M 258.261719 165.492188 C 259.742188 165.492188 260.945312 166.695312 260.945312 168.175781 C 260.945312 169.660156 259.742188 170.859375 258.261719 170.859375 C 256.777344 170.859375 255.578125 169.660156 255.578125 168.175781 C 255.578125 166.695312 256.777344 165.492188 258.261719 165.492188 Z M 258.261719 165.492188 " fill-opacity="1" fill-rule="evenodd"/></g><g clip-path="url(#4a5d7c0f5b)"><path fill="#3c7f72" d="M 258.261719 199.699219 C 259.742188 199.699219 260.945312 200.898438 260.945312 202.382812 C 260.945312 203.863281 259.742188 205.066406 258.261719 205.066406 C 256.777344 205.066406 255.578125 203.863281 255.578125 202.382812 C 255.578125 200.898438 256.777344 199.699219 258.261719 199.699219 Z M 258.261719 199.699219 " fill-opacity="1" fill-rule="evenodd"/></g><g clip-path="url(#2deda0042d)"><path fill="#3c7f72" d="M 111.578125 162.808594 C 113.058594 162.808594 114.261719 164.011719 114.261719 165.492188 C 114.261719 166.972656 113.058594 168.175781 111.578125 168.175781 C 110.09375 168.175781 108.894531 166.972656 108.894531 165.492188 C 108.894531 164.011719 110.09375 162.808594 111.578125 162.808594 Z M 111.578125 162.808594 " fill-opacity="1" fill-rule="evenodd"/></g><g clip-path="url(#e6f733fb50)"><path fill="#3c7f72" d="M 111.578125 199.699219 C 113.058594 199.699219 114.261719 200.898438 114.261719 202.382812 C 114.261719 203.863281 113.058594 205.066406 111.578125 205.066406 C 110.09375 205.066406 108.894531 203.863281 108.894531 202.382812 C 108.894531 200.898438 110.09375 199.699219 111.578125 199.699219 Z M 111.578125 199.699219 " fill-opacity="1" fill-rule="evenodd"/></g></svg>